<?xml version="1.0" encoding="UTF-8" standalone="no"?>
<!-- Created with Inkscape (http://www.inkscape.org/) -->

<svg
   xmlns:dc="http://purl.org/dc/elements/1.1/"
   xmlns:cc="http://creativecommons.org/ns#"
   xmlns:rdf="http://www.w3.org/1999/02/22-rdf-syntax-ns#"
   xmlns:svg="http://www.w3.org/2000/svg"
   xmlns="http://www.w3.org/2000/svg"
   xmlns:sodipodi="http://sodipodi.sourceforge.net/DTD/sodipodi-0.dtd"
   xmlns:inkscape="http://www.inkscape.org/namespaces/inkscape"
   width="744.09448819"
   height="1052.3622047"
   id="svg2"
   version="1.1"
   inkscape:version="0.48.1 r9760"
   sodipodi:docname="triangle.svg"
   inkscape:export-filename="/home/ivanam/kode/03_struct/20_doc/triangle.png"
   inkscape:export-xdpi="250"
   inkscape:export-ydpi="250">
  <defs
     id="defs4">
    <marker
       inkscape:stockid="Arrow1Lend"
       orient="auto"
       refY="0.0"
       refX="0.0"
       id="Arrow1Lend"
       style="overflow:visible;">
      <path
         id="path3976"
         d="M 0.0,0.0 L 5.0,-5.0 L -12.5,0.0 L 5.0,5.0 L 0.0,0.0 z "
         style="fill-rule:evenodd;stroke:#000000;stroke-width:1.0pt;marker-start:none;"
         transform="scale(0.8) rotate(180) translate(12.5,0)" />
    </marker>
    <inkscape:path-effect
       effect="spiro"
       id="path-effect5164"
       is_visible="true" />
    <inkscape:path-effect
       effect="spiro"
       id="path-effect4976"
       is_visible="true" />
    <inkscape:path-effect
       effect="spiro"
       id="path-effect3944"
       is_visible="true" />
    <inkscape:path-effect
       effect="spiro"
       id="path-effect3940"
       is_visible="true" />
    <inkscape:path-effect
       effect="spiro"
       id="path-effect3936"
       is_visible="true" />
    <inkscape:path-effect
       effect="spiro"
       id="path-effect3932"
       is_visible="true" />
    <inkscape:path-effect
       effect="spiro"
       id="path-effect3839"
       is_visible="true" />
    <inkscape:path-effect
       effect="spiro"
       id="path-effect3826"
       is_visible="true" />
    <inkscape:path-effect
       effect="spiro"
       id="path-effect3822"
       is_visible="true" />
  </defs>
  <sodipodi:namedview
     id="base"
     pagecolor="#ffffff"
     bordercolor="#666666"
     borderopacity="1.0"
     inkscape:pageopacity="0.0"
     inkscape:pageshadow="2"
     inkscape:zoom="0.72123458"
     inkscape:cx="116.23588"
     inkscape:cy="608.01868"
     inkscape:document-units="px"
     inkscape:current-layer="layer1"
     showgrid="false"
     inkscape:window-width="1304"
     inkscape:window-height="955"
     inkscape:window-x="1825"
     inkscape:window-y="51"
     inkscape:window-maximized="0" />
  <metadata
     id="metadata7">
    <rdf:RDF>
      <cc:Work
         rdf:about="">
        <dc:format>image/svg+xml</dc:format>
        <dc:type
           rdf:resource="http://purl.org/dc/dcmitype/StillImage" />
        <dc:title></dc:title>
      </cc:Work>
    </rdf:RDF>
  </metadata>
  <g
     inkscape:label="Layer 1"
     inkscape:groupmode="layer"
     id="layer1">
    <path
       sodipodi:type="arc"
       style="fill:none;stroke:#00000c;stroke-width:4;stroke-miterlimit:10;stroke-opacity:1;stroke-dasharray:none;stroke-dashoffset:0"
       id="path3050"
       sodipodi:cx="356.33344"
       sodipodi:cy="836.06641"
       sodipodi:rx="133.1051"
       sodipodi:ry="36.049297"
       d="m 489.43854,836.06641 a 133.1051,36.049297 0 1 1 -266.21021,0 133.1051,36.049297 0 1 1 266.21021,0 z"
       transform="matrix(1.6857281,0,0,1.8719271,-228.27242,-856.12902)" />
    <path
       style="fill:none;stroke:#000000;stroke-width:3.56748319;stroke-linecap:butt;stroke-linejoin:miter;stroke-miterlimit:4;stroke-opacity:1;stroke-dasharray:none"
       d="m 204.54292,347.82618 2.4058,406.79015"
       id="path3820"
       inkscape:path-effect="#path-effect3822"
       inkscape:original-d="m 204.54292,347.82618 2.4058,406.79015"
       inkscape:connector-curvature="0" />
    <path
       style="fill:none;stroke:#000000;stroke-width:3.47029853;stroke-linecap:butt;stroke-linejoin:miter;stroke-miterlimit:4;stroke-opacity:1;stroke-dasharray:none"
       d="M 204.54292,348.0354 577.44259,684.84801"
       id="path3824"
       inkscape:path-effect="#path-effect3826"
       inkscape:original-d="M 204.54292,348.0354 577.44259,684.84801"
       inkscape:connector-curvature="0" />
    <path
       style="fill:none;stroke:#000000;stroke-width:3.47029853;stroke-linecap:butt;stroke-linejoin:miter;stroke-miterlimit:4;stroke-opacity:1;stroke-dasharray:none"
       d="m 209.35453,749.80473 353.65323,-72.17413 2.4058,0"
       id="path3837"
       inkscape:path-effect="#path-effect3839"
       inkscape:original-d="m 209.35453,749.80473 353.65323,-72.17413 2.4058,0"
       inkscape:connector-curvature="0" />
    <text
       xml:space="preserve"
       style="font-size:69.40597534px;font-style:normal;font-variant:normal;font-weight:normal;font-stretch:normal;line-height:125%;letter-spacing:0px;word-spacing:0px;fill:#000000;fill-opacity:1;stroke:none;font-family:DejaVu Sans;-inkscape-font-specification:DejaVu Sans"
       x="14.484375"
       y="550.12292"
       id="text3845"
       sodipodi:linespacing="125%"><tspan
         sodipodi:role="line"
         id="tspan3847"
         x="14.484375"
         y="550.12292">2c</tspan></text>
    <text
       xml:space="preserve"
       style="font-size:69.40597534px;font-style:normal;font-variant:normal;font-weight:normal;font-stretch:normal;text-align:start;line-height:125%;letter-spacing:0px;word-spacing:0px;writing-mode:lr-tb;text-anchor:start;fill:#000000;fill-opacity:1;stroke:none;font-family:DejaVu Sans;-inkscape-font-specification:DejaVu Sans"
       x="420.70493"
       y="846.90515"
       id="text3849"
       sodipodi:linespacing="125%"><tspan
         sodipodi:role="line"
         id="tspan5373"
         x="420.70493"
         y="846.90515">t<tspan
   style="font-size:65.00091553%;baseline-shift:sub"
   id="tspan5379">13</tspan></tspan></text>
    <text
       xml:space="preserve"
       style="font-size:69.40597534px;font-style:normal;font-variant:normal;font-weight:normal;font-stretch:normal;line-height:125%;letter-spacing:0px;word-spacing:0px;fill:#000000;fill-opacity:1;stroke:none;font-family:DejaVu Sans;-inkscape-font-specification:DejaVu Sans"
       x="517.29749"
       y="559.74622"
       id="text3853"
       sodipodi:linespacing="125%"><tspan
         sodipodi:role="line"
         id="tspan3855"
         x="517.29749"
         y="559.74622">d<tspan
   style="font-size:45.11451721px;baseline-shift:sub"
   id="tspan3857">13</tspan></tspan></text>
    <path
       sodipodi:type="arc"
       style="fill:#000000;stroke:#00000c;stroke-width:2;stroke-miterlimit:4;stroke-opacity:1;stroke-dasharray:none;stroke-dashoffset:0;fill-opacity:1"
       id="path3928"
       sodipodi:cx="378.51761"
       sodipodi:cy="700.18829"
       sodipodi:rx="6.9325571"
       sodipodi:ry="4.1595345"
       d="m 385.45017,700.18829 a 6.9325571,4.1595345 0 1 1 -13.86512,0 6.9325571,4.1595345 0 1 1 13.86512,0 z" />
    <path
       style="fill:none;stroke:#000000;stroke-width:1px;stroke-linecap:butt;stroke-linejoin:miter;stroke-opacity:1"
       d="M 379.90413,697.41525 565.69667,675.23107"
       id="path3930"
       inkscape:path-effect="#path-effect3932"
       inkscape:original-d="M 379.90413,697.41525 565.69667,675.23107"
       inkscape:connector-curvature="0" />
    <path
       style="fill:none;stroke:#000000;stroke-width:1px;stroke-linecap:butt;stroke-linejoin:miter;stroke-opacity:1"
       d="m 212.13625,751.4892 0,0"
       id="path3934"
       inkscape:path-effect="#path-effect3936"
       inkscape:original-d="m 212.13625,751.4892 c 0,0 -103.98836,38.82232 0,0 z"
       inkscape:connector-curvature="0" />
    <path
       style="fill:none;stroke:#000000;stroke-width:1px;stroke-linecap:butt;stroke-linejoin:miter;stroke-opacity:1"
       d="m 378.51762,701.57479 -166.38137,48.5279"
       id="path3938"
       inkscape:path-effect="#path-effect3940"
       inkscape:original-d="m 378.51762,701.57479 c -166.38137,47.14139 -166.38137,48.5279 -166.38137,48.5279"
       inkscape:connector-curvature="0" />
    <path
       style="fill:none;stroke:#000000;stroke-width:1px;stroke-linecap:butt;stroke-linejoin:miter;stroke-opacity:1"
       d="m 435.36459,689.09619 c 1.09476,0.0433 2.19858,-0.43967 2.90978,-1.27307 0.71121,-0.83339 1.01457,-1.99942 0.79971,-3.07376 -0.21487,-1.07433 -0.94337,-2.03399 -1.92041,-2.52974 -0.97703,-0.49575 -2.18169,-0.51699 -3.17559,-0.056 -0.23491,0.10896 -0.46378,0.24485 -0.71977,0.2838 -0.128,0.0195 -0.26172,0.0133 -0.38274,-0.0328 -0.12101,-0.046 -0.22831,-0.13416 -0.284,-0.25104 -0.0518,-0.10867 -0.0566,-0.23471 -0.0382,-0.35367 0.0184,-0.11896 0.0587,-0.23322 0.0941,-0.34827 0.0354,-0.11504 0.0664,-0.23329 0.0653,-0.35367 -0.001,-0.12037 -0.0375,-0.24447 -0.1213,-0.3309 -0.0839,-0.0865 -0.20705,-0.12676 -0.32748,-0.13082 -0.12043,-0.004 -0.2395,0.0248 -0.35493,0.0593 -0.11542,0.0346 -0.22953,0.0753 -0.34821,0.0961 -0.11869,0.0208 -0.24426,0.0207 -0.35589,-0.0247 -0.12155,-0.0494 -0.21855,-0.15075 -0.2743,-0.26953 -0.0558,-0.11878 -0.0721,-0.25379 -0.0593,-0.38437 0.0256,-0.26117 0.16142,-0.49699 0.29712,-0.72161 0.13569,-0.22461 0.27743,-0.45523 0.31724,-0.71462 0.0199,-0.12969 0.0129,-0.26504 -0.033,-0.38797 -0.0459,-0.12294 -0.13234,-0.23258 -0.24779,-0.29493 -0.10421,-0.0563 -0.22646,-0.072 -0.34467,-0.0647 -0.1182,0.007 -0.23383,0.0364 -0.34867,0.0654 -0.11484,0.0289 -0.23051,0.058 -0.34873,0.065 -0.11822,0.007 -0.24046,-0.009 -0.34444,-0.0657 -0.11555,-0.063 -0.20165,-0.1736 -0.2467,-0.29727 -0.0451,-0.12366 -0.0509,-0.25951 -0.0298,-0.38941 0.0423,-0.25981 0.18664,-0.48977 0.32395,-0.71435 0.1373,-0.22458 0.27391,-0.46141 0.29766,-0.72357 0.0119,-0.13108 -0.006,-0.26647 -0.0641,-0.38463 -0.058,-0.11817 -0.15774,-0.21779 -0.28105,-0.26379 -0.11389,-0.0425 -0.24062,-0.0379 -0.35958,-0.0129 -0.11895,0.025 -0.23277,0.0695 -0.34871,0.10606 -0.11593,0.0366 -0.2366,0.0655 -0.35792,0.0579 -0.0607,-0.004 -0.12103,-0.0169 -0.17648,-0.0418 -0.0555,-0.0249 -0.10591,-0.0618 -0.14383,-0.10927 -0.0381,-0.0477 -0.0629,-0.10538 -0.0754,-0.16516 -0.0125,-0.0598 -0.013,-0.1217 -0.006,-0.18232 0.0149,-0.12125 0.0609,-0.23614 0.10445,-0.35026 0.0436,-0.11411 0.0857,-0.23108 0.0922,-0.35306 0.003,-0.061 -0.003,-0.12282 -0.0211,-0.181 -0.0186,-0.0582 -0.0503,-0.11264 -0.0946,-0.15471 -0.0444,-0.0422 -0.10071,-0.0711 -0.15998,-0.0868 -0.0593,-0.0157 -0.12152,-0.0185 -0.18254,-0.0125 -0.12204,0.012 -0.23771,0.0583 -0.35161,0.10375 -0.1139,0.0454 -0.22997,0.091 -0.35216,0.10144 -0.0611,0.005 -0.12333,0.001 -0.18228,-0.0154 -0.059,-0.0168 -0.11459,-0.047 -0.15794,-0.0904 -0.0434,-0.0434 -0.0735,-0.099 -0.0903,-0.15798 -0.0168,-0.059 -0.0206,-0.1212 -0.0154,-0.1823 0.0105,-0.12218 0.0561,-0.23825 0.10155,-0.35215 0.0455,-0.11389 0.0918,-0.22957 0.10372,-0.35162 0.006,-0.061 0.003,-0.12328 -0.0126,-0.18255 -0.0157,-0.0593 -0.0447,-0.1155 -0.087,-0.15991 -0.0421,-0.0442 -0.0966,-0.0759 -0.15484,-0.0944 -0.0582,-0.0185 -0.12006,-0.0243 -0.18105,-0.0209 -0.12199,0.007 -0.23892,0.0489 -0.35303,0.0926 -0.1141,0.0437 -0.22902,0.0896 -0.3503,0.10443 -0.0606,0.007 -0.12257,0.007 -0.18234,-0.006 -0.0598,-0.0127 -0.11735,-0.0376 -0.16495,-0.0759 -0.0474,-0.0381 -0.084,-0.0887 -0.10864,-0.14427 -0.0246,-0.0556 -0.0374,-0.11598 -0.0409,-0.17665 -0.007,-0.12134 0.0224,-0.24184 0.0593,-0.35767 0.0368,-0.11583 0.0813,-0.22964 0.10596,-0.34867 0.0246,-0.11902 0.0283,-0.24592 -0.0157,-0.35925 -0.0481,-0.12416 -0.15159,-0.22302 -0.27286,-0.27802 -0.12128,-0.055 -0.25898,-0.0682 -0.39105,-0.0512 -0.26414,0.0341 -0.49786,0.18191 -0.72166,0.32628 -0.22379,0.14438 -0.45707,0.29267 -0.72105,0.32792 -0.13199,0.0176 -0.26973,0.005 -0.39137,-0.049 -0.12163,-0.0542 -0.22581,-0.15222 -0.27503,-0.27595 -0.0448,-0.11265 -0.0425,-0.23922 -0.0191,-0.35817 0.0234,-0.11895 0.0669,-0.23284 0.10316,-0.34851 0.0363,-0.11567 0.0657,-0.23569 0.0598,-0.35677 -0.003,-0.0605 -0.015,-0.12092 -0.0386,-0.17675 -0.0236,-0.0558 -0.059,-0.10705 -0.10519,-0.14631 -0.0462,-0.0393 -0.1025,-0.066 -0.16137,-0.0808 -0.0589,-0.0147 -0.1203,-0.0178 -0.18078,-0.0127 -0.12095,0.01 -0.23678,0.0515 -0.35095,0.0927 -0.11417,0.0412 -0.22993,0.0828 -0.35086,0.0931 -0.0605,0.005 -0.1219,0.002 -0.18082,-0.0122 -0.0589,-0.0145 -0.1153,-0.041 -0.16173,-0.0801 -0.0464,-0.039 -0.0821,-0.0901 -0.10601,-0.14577 -0.0239,-0.0557 -0.0363,-0.11602 -0.0396,-0.17656 -0.007,-0.12107 0.0222,-0.24128 0.0582,-0.35707 0.036,-0.11578 0.0795,-0.22967 0.10336,-0.34854 0.0239,-0.11888 0.0273,-0.24528 -0.0159,-0.35858 -0.0468,-0.12283 -0.14679,-0.22191 -0.26502,-0.27938 -0.11822,-0.0575 -0.25344,-0.0752 -0.38435,-0.0633 -0.26182,0.0239 -0.49849,0.1599 -0.72311,0.29653 -0.22462,0.13663 -0.45466,0.28014 -0.71422,0.32202 -0.12977,0.0209 -0.26542,0.015 -0.38896,-0.03 -0.12353,-0.0449 -0.23408,-0.13073 -0.29737,-0.24595 -0.057,-0.10376 -0.0736,-0.22587 -0.067,-0.34407 0.007,-0.1182 0.0352,-0.23394 0.0639,-0.3488 0.0287,-0.11485 0.0578,-0.23041 0.0655,-0.34855 0.008,-0.11814 -0.007,-0.24032 -0.0624,-0.34509 -0.0605,-0.11495 -0.16705,-0.20247 -0.28757,-0.25091 -0.12052,-0.0484 -0.25413,-0.0594 -0.38306,-0.0437 -0.25787,0.0314 -0.49076,0.16402 -0.71569,0.29398 -0.22492,0.12997 -0.45772,0.26272 -0.71556,0.29435 -0.12892,0.0158 -0.26254,0.005 -0.38313,-0.0433 -0.12059,-0.0483 -0.22731,-0.13558 -0.28801,-0.25041 -0.0553,-0.10465 -0.0705,-0.22677 -0.0631,-0.3449 0.007,-0.11814 0.0363,-0.23373 0.065,-0.34859 0.0286,-0.11486 0.0572,-0.23056 0.064,-0.34873 0.007,-0.11817 -0.009,-0.24025 -0.0659,-0.34429 -0.0624,-0.11494 -0.17142,-0.20121 -0.29377,-0.2474 -0.12234,-0.0462 -0.25714,-0.054 -0.38654,-0.0351 -0.25881,0.0378 -0.48991,0.17693 -0.71461,0.31079 -0.2247,0.13386 -0.45978,0.26837 -0.71995,0.29523 -0.13008,0.0134 -0.26462,-0.002 -0.3838,-0.0554 -0.11918,-0.0538 -0.2219,-0.14827 -0.27435,-0.26807 -0.048,-0.10965 -0.0523,-0.23423 -0.0352,-0.3527 0.0171,-0.11848 0.0544,-0.23292 0.0873,-0.34802 0.0328,-0.11511 0.0615,-0.23298 0.0606,-0.35268 -9.5e-4,-0.11969 -0.0342,-0.24271 -0.11261,-0.33311 -0.0793,-0.0913 -0.19833,-0.14165 -0.3184,-0.15582 -0.12007,-0.0142 -0.24176,0.005 -0.35905,0.0343 -0.11728,0.0294 -0.23187,0.0689 -0.34953,0.0967 -0.11766,0.0278 -0.24012,0.0437 -0.35953,0.0248 -0.16582,-0.0263 -0.31578,-0.11875 -0.43568,-0.23626 -0.11991,-0.1175 -0.2127,-0.2595 -0.29947,-0.40322 -0.0868,-0.14372 -0.16889,-0.29093 -0.2714,-0.42389 -0.10252,-0.13295 -0.22767,-0.25249 -0.37996,-0.32314 -0.22738,-0.10548 -0.49412,-0.0921 -0.73614,-0.0269 -0.24202,0.0652 -0.46779,0.17862 -0.70079,0.27101 -0.233,0.0924 -0.48165,0.16491 -0.73125,0.14201 -0.1248,-0.0114 -0.24827,-0.0473 -0.35546,-0.11227 -0.10718,-0.0649 -0.19749,-0.15975 -0.24939,-0.27383 -0.0487,-0.10702 -0.0625,-0.22729 -0.057,-0.34474 0.006,-0.11745 0.0296,-0.23314 0.0539,-0.34819 0.0243,-0.11505 0.0489,-0.23059 0.0555,-0.34798 0.007,-0.1174 -0.006,-0.23772 -0.0524,-0.3456 -0.0499,-0.11513 -0.13813,-0.21194 -0.24385,-0.27954 -0.10571,-0.0676 -0.22833,-0.10672 -0.35296,-0.12138 -0.24924,-0.0293 -0.50014,0.0372 -0.7347,0.12644 -0.23455,0.0892 -0.46069,0.20197 -0.70185,0.27141 -0.24117,0.0694 -0.50539,0.0931 -0.73966,0.003 -0.15508,-0.0596 -0.28878,-0.16589 -0.40095,-0.28843 -0.11218,-0.12253 -0.20455,-0.26158 -0.29602,-0.40026 -0.0915,-0.13869 -0.18295,-0.27823 -0.29365,-0.4021 -0.1107,-0.12387 -0.24228,-0.23245 -0.39589,-0.29572 -0.21573,-0.0889 -0.45822,-0.0826 -0.69002,-0.0562 -0.23181,0.0265 -0.46371,0.0718 -0.69649,0.0562 -0.26175,-0.0176 -0.51369,-0.11212 -0.74278,-0.23995 -0.22909,-0.12784 -0.43781,-0.28865 -0.64534,-0.44912 -0.20753,-0.16047 -0.41574,-0.32186 -0.64408,-0.45101 -0.22834,-0.12916 -0.4793,-0.22585 -0.74083,-0.24644 -0.23226,-0.0183 -0.46438,0.0236 -0.69596,0.049 -0.23159,0.0254 -0.47262,0.0333 -0.69055,-0.049 -0.15493,-0.0585 -0.29067,-0.16044 -0.40651,-0.27881 -0.11584,-0.11838 -0.21312,-0.2534 -0.30765,-0.3894 -0.0945,-0.136 -0.18705,-0.27389 -0.29477,-0.3997 -0.10771,-0.12581 -0.23178,-0.24003 -0.37758,-0.3186 -0.208,-0.1121 -0.45095,-0.14628 -0.68698,-0.1354 -0.23603,0.0109 -0.46777,0.0646 -0.69762,0.11933 -0.22984,0.0548 -0.4607,0.11111 -0.69641,0.12749 -0.23572,0.0164 -0.47901,-0.009 -0.69201,-0.11142 -0.29758,-0.14289 -0.50628,-0.41797 -0.7002,-0.68511 -0.19393,-0.26714 -0.39525,-0.54566 -0.68631,-0.7014 -0.20748,-0.11102 -0.44733,-0.15086 -0.68263,-0.14786 -0.2353,0.003 -0.46803,0.0469 -0.69836,0.0951 -0.23034,0.0482 -0.46053,0.10088 -0.69491,0.12182 -0.23439,0.0209 -0.47517,0.009 -0.69713,-0.0691 -0.3128,-0.11014 -0.56716,-0.34383 -0.77886,-0.59909 -0.2117,-0.25525 -0.38999,-0.53723 -0.60765,-0.78742 -0.41252,-0.47417 -0.96077,-0.82297 -1.55456,-1.02894 -0.59379,-0.20596 -1.2319,-0.27189 -1.85878,-0.22688 -1.25377,0.09 -2.43892,0.61317 -3.51921,1.25582 -0.22681,0.13493 -0.45898,0.27862 -0.7205,0.314 -0.13076,0.0177 -0.26714,0.007 -0.38841,-0.0454 -0.12127,-0.052 -0.22619,-0.14704 -0.27761,-0.26856 -0.0471,-0.11119 -0.0476,-0.23732 -0.0264,-0.35618 0.0212,-0.11887 0.0628,-0.23291 0.0984,-0.3483 0.0355,-0.11539 0.0653,-0.23458 0.0613,-0.35525 -0.002,-0.0603 -0.0125,-0.12065 -0.0343,-0.17696 -0.0218,-0.0563 -0.0549,-0.10856 -0.099,-0.14982 -0.0433,-0.0406 -0.0965,-0.0699 -0.1527,-0.0888 -0.0562,-0.0189 -0.1156,-0.0276 -0.17491,-0.0295 -0.11862,-0.004 -0.23638,0.0187 -0.35273,0.0421 -0.23269,0.0469 -0.46881,0.0762 -0.70617,0.0762 l -1.38651,0 -15.25162,0 -1.38652,0 c -0.23598,0 -0.47099,-0.0258 -0.7033,-0.0672 -0.11616,-0.0207 -0.23341,-0.0406 -0.35135,-0.0374 -0.11795,0.003 -0.23896,0.0319 -0.33186,0.10464 -0.096,0.0751 -0.15361,0.1919 -0.1742,0.31201 -0.0206,0.12011 -0.007,0.24381 0.02,0.36267 0.0538,0.23771 0.16047,0.46819 0.15418,0.71183 -0.004,0.14376 -0.0479,0.28566 -0.12237,0.40866 -0.0745,0.123 -0.17887,0.22715 -0.2995,0.30543 -0.24126,0.15656 -0.54232,0.20634 -0.82783,0.17169 -0.28551,-0.0346 -0.55681,-0.14897 -0.80288,-0.29785 -0.24607,-0.14888 -0.46933,-0.33211 -0.69032,-0.51617 -0.221,-0.18407 -0.44146,-0.37022 -0.68331,-0.52587 -0.24185,-0.15565 -0.50739,-0.28089 -0.79055,-0.33131 -0.28315,-0.0504 -0.58563,-0.0219 -0.83907,0.11409 -0.12672,0.068 -0.23988,0.16216 -0.32596,0.27736 -0.0861,0.11519 -0.14464,0.25151 -0.16425,0.39397 -0.0323,0.23444 0.0399,0.46871 0.0837,0.70128 0.0219,0.11629 0.0368,0.23487 0.0279,0.35286 -0.009,0.11798 -0.0429,0.23603 -0.11159,0.33237 -0.0746,0.10457 -0.18744,0.17893 -0.31001,0.21729 -0.12257,0.0384 -0.25437,0.0421 -0.38128,0.0224 -0.25382,-0.0394 -0.48338,-0.16843 -0.70914,-0.29096 -0.22576,-0.12253 -0.46186,-0.24315 -0.71794,-0.26316 -0.12805,-0.01 -0.25946,0.006 -0.37686,0.0584 -0.1174,0.0521 -0.21996,0.14134 -0.2778,0.25601 -0.0533,0.10566 -0.0669,0.22774 -0.0586,0.34578 0.008,0.11804 0.0374,0.23349 0.0658,0.34837 0.0284,0.11487 0.0563,0.23073 0.0622,0.34892 0.006,0.11819 -0.0117,0.24011 -0.0694,0.34344 -0.0641,0.11483 -0.17517,0.19995 -0.29898,0.24425 -0.12382,0.0443 -0.25952,0.0496 -0.38926,0.0282 -0.25948,-0.0429 -0.4892,-0.18691 -0.71387,-0.32364 -0.22466,-0.13674 -0.46176,-0.27244 -0.72376,-0.29533 -0.131,-0.0114 -0.26621,0.007 -0.38412,0.0652 -0.11792,0.0582 -0.21722,0.1581 -0.26303,0.28136 -0.0423,0.11395 -0.0377,0.24066 -0.0126,0.35961 0.0251,0.11896 0.0696,0.23277 0.1061,0.34872 0.0365,0.11594 0.0654,0.23663 0.0577,0.35795 -0.004,0.0607 -0.017,0.12102 -0.0419,0.17647 -0.0249,0.0554 -0.0618,0.10587 -0.10936,0.14376 -0.0478,0.0381 -0.10543,0.0629 -0.16522,0.0753 -0.0598,0.0125 -0.12172,0.0129 -0.18235,0.005 -0.12124,-0.015 -0.23612,-0.061 -0.35024,-0.10461 -0.11411,-0.0436 -0.23111,-0.0857 -0.3531,-0.0922 -0.061,-0.003 -0.12283,0.003 -0.181,0.0213 -0.0582,0.0186 -0.11259,0.0504 -0.1546,0.0947 -0.0422,0.0445 -0.071,0.10087 -0.0866,0.16019 -0.0156,0.0593 -0.0183,0.12161 -0.0121,0.18264 0.0123,0.12206 0.0588,0.23768 0.1044,0.35157 0.0456,0.11389 0.0912,0.23003 0.10143,0.35229 0.005,0.0611 0.001,0.12338 -0.0159,0.18229 -0.0171,0.0589 -0.0475,0.11444 -0.0912,0.15754 -0.0437,0.0431 -0.0997,0.0729 -0.15888,0.0893 -0.0592,0.0163 -0.12156,0.0196 -0.1827,0.0138 -0.12227,-0.0116 -0.23809,-0.0583 -0.35194,-0.10437 -0.11386,-0.0461 -0.2298,-0.0925 -0.35212,-0.10366 -0.0612,-0.006 -0.12352,-0.002 -0.18262,0.0146 -0.0591,0.0167 -0.11489,0.0469 -0.15825,0.0904 -0.0434,0.0435 -0.0734,0.0994 -0.0899,0.15856 -0.0165,0.0592 -0.0199,0.12156 -0.0141,0.18272 0.0115,0.12232 0.0582,0.23819 0.10436,0.35204 0.0462,0.11384 0.0928,0.22974 0.10419,0.35207 0.006,0.0612 0.002,0.12355 -0.0143,0.1827 -0.0166,0.0592 -0.0467,0.115 -0.0902,0.15842 -0.0435,0.0434 -0.0993,0.0735 -0.15849,0.0901 -0.0592,0.0166 -0.12155,0.0199 -0.18272,0.0142 -0.12233,-0.0114 -0.23821,-0.0581 -0.35206,-0.10435 -0.11384,-0.0462 -0.22973,-0.0929 -0.35206,-0.10431 -0.0612,-0.006 -0.12356,-0.002 -0.18272,0.0143 -0.0591,0.0166 -0.11502,0.0467 -0.15846,0.0901 -0.0434,0.0434 -0.0735,0.0993 -0.0901,0.15846 -0.0166,0.0592 -0.02,0.12155 -0.0143,0.18272 0.0114,0.12233 0.0581,0.23822 0.10431,0.35206 0.0462,0.11385 0.0929,0.22973 0.10435,0.35206 0.006,0.0612 0.002,0.12356 -0.0142,0.18272 -0.0166,0.0592 -0.0466,0.11504 -0.0901,0.15849 -0.0434,0.0435 -0.0993,0.0736 -0.15842,0.0902 -0.0591,0.0166 -0.12153,0.02 -0.1827,0.0143 -0.12233,-0.0113 -0.23823,-0.058 -0.35207,-0.10419 -0.11385,-0.0462 -0.22972,-0.0929 -0.35204,-0.10436 -0.0612,-0.006 -0.12355,-0.002 -0.18272,0.0141 -0.0592,0.0165 -0.11506,0.0465 -0.15856,0.0899 -0.0435,0.0434 -0.0737,0.0992 -0.0904,0.15825 -0.0167,0.0591 -0.0202,0.12146 -0.0146,0.18262 0.0111,0.12232 0.0576,0.23826 0.10367,0.35212 0.0461,0.11385 0.0928,0.22967 0.10436,0.35194 0.006,0.0611 0.003,0.1235 -0.0138,0.1827 -0.0163,0.0592 -0.0461,0.11518 -0.0893,0.15888 -0.0431,0.0437 -0.0986,0.0741 -0.15754,0.0912 -0.0589,0.0171 -0.12117,0.021 -0.1823,0.0159 -0.12225,-0.0102 -0.23839,-0.0558 -0.35228,-0.10142 -0.1139,-0.0456 -0.22951,-0.0921 -0.35157,-0.10441 -0.061,-0.006 -0.12331,-0.003 -0.18264,0.0121 -0.0593,0.0156 -0.11566,0.0444 -0.16019,0.0866 -0.0444,0.042 -0.0761,0.0964 -0.0948,0.15461 -0.0186,0.0582 -0.0245,0.11999 -0.0213,0.18099 0.007,0.122 0.0486,0.23899 0.0922,0.3531 0.0436,0.11412 0.0896,0.229 0.1046,0.35025 0.007,0.0606 0.007,0.12255 -0.005,0.18234 -0.0125,0.0598 -0.0373,0.11746 -0.0753,0.16522 -0.0379,0.0475 -0.0883,0.0844 -0.14377,0.10935 -0.0555,0.0249 -0.11581,0.038 -0.17647,0.0419 -0.12132,0.008 -0.24201,-0.0212 -0.35795,-0.0578 -0.11594,-0.0365 -0.22976,-0.081 -0.34871,-0.1061 -0.11896,-0.0251 -0.24567,-0.0297 -0.35961,0.0127 -0.12328,0.0458 -0.22314,0.14523 -0.28129,0.2632 -0.0582,0.11798 -0.0765,0.25323 -0.0649,0.38425 0.0231,0.26204 0.15902,0.49908 0.29589,0.72372 0.13688,0.22464 0.28098,0.45442 0.32373,0.71398 0.0214,0.12978 0.0159,0.26552 -0.0286,0.3893 -0.0445,0.12377 -0.12984,0.23474 -0.24484,0.29857 -0.10348,0.0574 -0.22548,0.0746 -0.34368,0.0685 -0.11819,-0.006 -0.23401,-0.0343 -0.34887,-0.0628 -0.11487,-0.0285 -0.23036,-0.0576 -0.34844,-0.0657 -0.11808,-0.008 -0.24021,0.006 -0.34552,0.0601 -0.11474,0.0588 -0.20331,0.16293 -0.25398,0.2815 -0.0507,0.11858 -0.065,0.25082 -0.0528,0.37919 0.0244,0.25675 0.14958,0.4916 0.27494,0.71698 0.12536,0.22539 0.25576,0.45608 0.29225,0.71138 0.0183,0.12765 0.0118,0.26014 -0.0303,0.38202 -0.0421,0.12187 -0.12146,0.23253 -0.23012,0.30196 -0.0994,0.0635 -0.21903,0.0904 -0.33702,0.0932 -0.11798,0.003 -0.23529,-0.0173 -0.35077,-0.0417 -0.11548,-0.0243 -0.23028,-0.053 -0.34737,-0.0678 -0.11709,-0.0148 -0.23762,-0.0153 -0.35135,0.0163 -0.19755,0.0548 -0.36144,0.20581 -0.45253,0.38946 -0.0911,0.18365 -0.11326,0.39682 -0.0848,0.59983 0.0569,0.40602 0.30198,0.75726 0.53969,1.09132 0.2377,0.33405 0.48235,0.6857 0.53833,1.09186 0.028,0.20307 0.005,0.41621 -0.0866,0.59953 -0.0917,0.18332 -0.25631,0.33372 -0.45412,0.38753 -0.11396,0.031 -0.23457,0.0299 -0.35168,0.0146 -0.1171,-0.0153 -0.23188,-0.0444 -0.3474,-0.069 -0.11553,-0.0245 -0.23297,-0.0446 -0.35103,-0.0414 -0.11806,0.003 -0.23765,0.0311 -0.3364,0.0958 -0.10901,0.0715 -0.18703,0.18531 -0.22637,0.30961 -0.0393,0.12429 -0.0416,0.25848 -0.019,0.38688 0.0452,0.25679 0.18495,0.48535 0.31616,0.71067 0.13121,0.22533 0.25939,0.46361 0.27731,0.72374 0.009,0.13007 -0.0111,0.26363 -0.0696,0.38017 -0.0584,0.11654 -0.15692,0.21487 -0.27849,0.26195 -0.11257,0.0436 -0.23827,0.0419 -0.35696,0.0198 -0.11868,-0.0221 -0.23271,-0.0636 -0.34831,-0.0984 -0.11559,-0.0348 -0.23511,-0.0632 -0.35572,-0.0579 -0.0603,0.003 -0.12049,0.0138 -0.17657,0.0362 -0.0561,0.0223 -0.108,0.056 -0.14895,0.10031 -0.0805,0.0871 -0.11357,0.2094 -0.11729,0.32797 -0.004,0.11856 0.0186,0.23628 0.0418,0.35261 0.0464,0.23266 0.0755,0.46869 0.0755,0.70594 l 0,1.38651 c 0,0.18278 -0.005,0.36865 -0.0634,0.54201 -0.0579,0.17335 -0.16709,0.32895 -0.31001,0.4429 -0.14291,0.11395 -0.31489,0.18571 -0.48962,0.23938 -0.17472,0.0537 -0.35473,0.0919 -0.52346,0.16222 -0.29002,0.12081 -0.53669,0.33618 -0.71251,0.59655 -0.17583,0.26037 -0.28249,0.5643 -0.3283,0.87512 -0.0916,0.62164 0.056,1.25506 0.26869,1.84632 0.2127,0.59127 0.49108,1.15857 0.6761,1.75907 0.18502,0.60051 0.27309,1.25261 0.096,1.8555 -0.07,0.23836 -0.18049,0.4661 -0.21748,0.71176 -0.0185,0.12283 -0.0179,0.24994 0.0157,0.36952 0.0336,0.11959 0.10191,0.23138 0.20179,0.30523 0.0953,0.0705 0.21455,0.10335 0.33289,0.10967 0.11835,0.006 0.23663,-0.0125 0.35252,-0.0373 0.11589,-0.0248 0.23059,-0.0557 0.34766,-0.0741 0.11708,-0.0184 0.23775,-0.024 0.35344,0.002 0.19357,0.043 0.36219,0.17401 0.46819,0.34158 0.10601,0.16756 0.1521,0.369 0.14925,0.56726 -0.006,0.39653 -0.19668,0.76502 -0.40113,1.10483 -0.20445,0.3398 -0.43093,0.67729 -0.52118,1.06345 -0.0451,0.19308 -0.0543,0.39676 -0.007,0.58931 0.0474,0.19254 0.15384,0.37326 0.31181,0.4931 0.14373,0.10904 0.32031,0.16355 0.49222,0.2183 0.1719,0.0548 0.34517,0.11423 0.4935,0.21693 0.14833,0.10269 0.26677,0.24913 0.33044,0.41793 0.0637,0.1688 0.0704,0.35294 0.0704,0.53335 l 0,9.70558 c 0,0.23655 -0.0274,0.47203 -0.0711,0.7045 -0.0219,0.11624 -0.0429,0.23369 -0.0395,0.35192 0.003,0.11823 0.0342,0.23982 0.11058,0.33009 0.0782,0.0924 0.19779,0.14299 0.31808,0.15649 0.12028,0.0135 0.24196,-0.007 0.3591,-0.0375 0.11714,-0.0305 0.23158,-0.071 0.34941,-0.0987 0.11783,-0.0277 0.2409,-0.0424 0.35992,-0.0203 0.12901,0.0239 0.24852,0.091 0.34148,0.18362 0.093,0.0926 0.15983,0.20985 0.19949,0.33491 0.0793,0.25013 0.05,0.5237 -0.026,0.77486 -0.076,0.25117 -0.19637,0.48612 -0.3021,0.72628 -0.10572,0.24015 -0.1982,0.49137 -0.21288,0.75336 -0.0206,0.36822 0.12232,0.74263 0.3831,1.00341 0.26078,0.26078 0.63519,0.40373 1.00341,0.3831"
       id="path4974"
       inkscape:path-effect="#path-effect4976"
       inkscape:original-d="m 435.36459,689.09619 c -8.36926,0.70855 0.27987,-5.26618 -1.38651,-6.93256 -0.3268,-0.32681 -1.05971,0.3268 -1.38651,0 -0.3268,-0.32681 0.3268,-1.05971 0,-1.38651 -0.3268,-0.32681 -1.05971,0.3268 -1.38651,0 -0.65361,-0.65361 0.65361,-2.11942 0,-2.77303 -0.32681,-0.3268 -1.05971,0.32681 -1.38651,0 -0.65361,-0.6536 0.6536,-2.11941 0,-2.77302 -0.32681,-0.3268 -1.05971,0.3268 -1.38652,0 -0.3268,-0.3268 0.32681,-1.05971 0,-1.38651 -0.3268,-0.3268 -1.0597,0.3268 -1.38651,0 -0.3268,-0.3268 0.32681,-1.05971 0,-1.38651 -0.3268,-0.32681 -1.0597,0.3268 -1.38651,0 -0.3268,-0.32681 0.32681,-1.05971 0,-1.38651 -0.65361,-0.65361 -2.11941,0.6536 -2.77302,0 -0.3268,-0.32681 0.3268,-1.05971 0,-1.38651 -0.3268,-0.32681 -1.05971,0.3268 -1.38651,0 -0.32681,-0.32681 0.3268,-1.05971 0,-1.38652 -0.65361,-0.6536 -2.11942,0.65361 -2.77303,0 -0.3268,-0.3268 0.32681,-1.0597 0,-1.38651 -0.92307,-0.92307 -1.84994,0.92308 -2.77302,0 -0.3268,-0.3268 0.32681,-1.05971 0,-1.38651 -0.65361,-0.65361 -2.11941,0.65361 -2.77302,0 -0.3268,-0.3268 0.3268,-1.05971 0,-1.38651 -0.3268,-0.3268 -0.97313,0.20669 -1.38651,0 -0.58461,-0.2923 -0.80191,-1.09421 -1.38651,-1.38651 -0.82676,-0.41338 -2.11942,0.65361 -2.77303,0 -0.3268,-0.32681 0.32681,-1.05971 0,-1.38651 -0.6536,-0.65361 -1.94626,0.41337 -2.77302,0 -0.5846,-0.29231 -0.80191,-1.09421 -1.38651,-1.38651 -0.41338,-0.20669 -0.94806,0.14615 -1.38651,0 -0.98041,-0.32681 -1.79261,-1.05971 -2.77303,-1.38652 -0.43845,-0.14615 -0.97313,0.20669 -1.38651,0 -0.5846,-0.2923 -0.8019,-1.09421 -1.38651,-1.38651 -1.47692,-0.73846 -1.2961,0.73846 -2.77302,0 -0.58461,-0.2923 -0.80191,-1.09421 -1.38651,-1.38651 -0.82676,-0.41338 -1.94627,0.41338 -2.77303,0 -0.5846,-0.2923 -0.8019,-1.09421 -1.38651,-1.38651 -0.50141,-0.25071 -5.96818,0 -6.93255,0 -0.46217,0 -1.05971,0.3268 -1.38652,0 -0.3268,-0.3268 0.32681,-1.05971 0,-1.38651 -0.3268,-0.32681 -0.92434,0 -1.38651,0 -0.46217,0 -0.92434,0 -1.38651,0 -5.08387,0 -10.16775,0 -15.25162,0 -0.46217,0 -0.92435,0 -1.38652,0 -0.46217,0 -1.0597,-0.32681 -1.38651,0 -0.3268,0.3268 0.32681,1.05971 0,1.38651 -0.33363,0.33364 -5.21241,-0.33364 -5.54604,0 -0.32681,0.3268 0.3268,1.05971 0,1.38651 -0.92754,0.92754 -1.84549,-0.92754 -2.77303,0 -0.3268,0.3268 0.32681,1.05971 0,1.38651 -0.6536,0.65361 -2.11941,-0.65361 -2.77302,0 -0.3268,0.32681 0.32681,1.05971 0,1.38651 -0.3268,0.32681 -1.05971,-0.3268 -1.38651,0 -0.3268,0.32681 0.3268,1.05971 0,1.38652 -0.3268,0.3268 -1.05971,-0.32681 -1.38651,0 -0.32681,0.3268 0.3268,1.0597 0,1.38651 -0.32681,0.3268 -1.05971,-0.32681 -1.38651,0 -0.32681,0.3268 0.3268,1.0597 0,1.38651 -0.32681,0.3268 -1.05971,-0.32681 -1.38651,0 -0.32681,0.3268 0.3268,1.05971 0,1.38651 -0.32681,0.3268 -1.05971,-0.3268 -1.38652,0 -0.3268,0.3268 0.32681,1.05971 0,1.38651 -0.3268,0.3268 -1.0597,-0.3268 -1.38651,0 -0.65361,0.65361 0.65361,2.11942 0,2.77302 -0.3268,0.32681 -1.0597,-0.3268 -1.38651,0 -0.65361,0.65361 0.65361,2.11942 0,2.77303 -0.3268,0.3268 -1.05971,-0.32681 -1.38651,0 -0.69326,0.69325 0.69326,3.46628 0,4.15953 -0.3268,0.3268 -1.05971,-0.3268 -1.38651,0 -0.65361,0.65361 0.65361,2.11942 0,2.77302 -0.32681,0.32681 -1.05971,-0.3268 -1.38651,0 -0.32681,0.32681 0,0.92434 0,1.38652 0,0.46217 0,0.92434 0,1.38651 0,3.69736 0.46217,-0.46217 -1.38651,1.38651 -0.0628,0.0628 0,6.27882 0,6.93256 0,0.46217 -0.32681,1.0597 0,1.38651 0.3268,0.3268 1.0597,-0.32681 1.38651,0 0.69325,0.69325 -0.69326,3.46628 0,4.15953 1.84868,1.84868 1.38651,-2.31085 1.38651,1.38651 0,3.2352 0,6.47039 0,9.70558 0,0.46217 -0.32681,1.05971 0,1.38651 0.3268,0.32681 1.05971,-0.3268 1.38651,0 0.65361,0.65361 -0.65361,2.11942 0,2.77303 1.84868,1.84868 1.38651,-2.31086 1.38651,1.38651"
       inkscape:connector-curvature="0" />
    <path
       style="fill:none;stroke:#000000;stroke-width:1px;stroke-linecap:butt;stroke-linejoin:miter;stroke-opacity:1;marker-end:url(#Arrow1Lend)"
       d="m 331.37623,697.41525 9.70558,15.25163"
       id="path5162"
       inkscape:path-effect="#path-effect5164"
       inkscape:original-d="m 331.37623,697.41525 c 9.70558,15.25163 9.70558,15.25163 9.70558,15.25163"
       inkscape:connector-curvature="0" />
    <text
       xml:space="preserve"
       style="font-size:40px;font-style:italic;font-variant:normal;font-weight:normal;font-stretch:normal;text-align:start;line-height:125%;letter-spacing:0px;word-spacing:0px;writing-mode:lr-tb;text-anchor:start;fill:#000000;fill-opacity:1;stroke:none;font-family:LMMathItalic6;-inkscape-font-specification:LMMathItalic6 Italic"
       x="350.78738"
       y="682.16364"
       id="text5350"
       sodipodi:linespacing="125%"><tspan
         sodipodi:role="line"
         id="tspan3021"
         x="350.78738"
         y="682.16364">2a</tspan></text>
    <text
       xml:space="preserve"
       style="font-size:40px;font-style:normal;font-variant:normal;font-weight:normal;font-stretch:normal;line-height:125%;letter-spacing:0px;word-spacing:0px;fill:#000000;fill-opacity:1;stroke:none;font-family:DejaVu Sans;-inkscape-font-specification:DejaVu Sans"
       x="464.48135"
       y="679.39056"
       id="text3023"
       sodipodi:linespacing="125%"><tspan
         sodipodi:role="line"
         id="tspan3025"
         x="464.48135"
         y="679.39056">r</tspan></text>
  </g>
</svg>
